<svg id="Layer_2" data-name="Layer 2" xmlns="http://www.w3.org/2000/svg" width="391.58" height="72.27" viewBox="0 0 391.58 72.27">
  <g id="Layer_1" data-name="Layer 1">
    <path id="Path_1268" data-name="Path 1268" d="M241.52,51.87c3,4,9,3.11,12.7.62,3.42-2.15,3.45-6.58,3.55-10.16-4.15,1.28-8.54,1.24-12.74,2.22C241.87,45.11,239.46,49,241.52,51.87Z" fill="none"/>
    <path id="Path_1269" data-name="Path 1269" d="M173.58,36.76c-5.38-1.5-11.06-.45-16.57-.75v17c5.58-.22,11.32.62,16.76-1C180.48,50,180.29,38.71,173.58,36.76Z" fill="none"/>
    <path id="Path_1270" data-name="Path 1270" d="M171.89,24.44c6.5-2.55,4.76-13.86-2-14.79-4.29-.28-8.59,0-12.88-.12V25.27C161.94,25,167.11,26,171.89,24.44Z" fill="none"/>
    <path id="Path_1271" data-name="Path 1271" d="M336.54,27.88c-2.34-2.42-6-2.8-9.17-2.06-5.83,2-7.48,9.07-7,14.56.35,5,1.82,11.34,7.1,13.35,3.55.8,7.76.16,10.3-2.66,2.6-3.31,3-7.77,2.89-11.84S339.58,30.78,336.54,27.88Z" fill="none"/>
    <path id="Path_1272" data-name="Path 1272" d="M180.69,29.41C190.78,24.35,190,8,180.46,2.78,176.39.48,171.6.14,167,0H144.74V63.25h26.28c5.85-.12,12.38-.85,16.58-5.42C196.25,49.57,192.32,32.71,180.69,29.41ZM157,9.53c4.29.09,8.59-.16,12.88.12,6.76.93,8.5,12.24,2,14.79-4.78,1.6-9.95.52-14.89.83C157,20,157,14.78,157,9.53Zm16.76,42.52c-5.44,1.58-11.18.74-16.76,1v-17c5.51.3,11.19-.75,16.57.75,6.72,1.91,6.91,13.2.2,15.25Z" fill="#fff"/>
    <path id="Path_1273" data-name="Path 1273" d="M292.77,49.46c-.83-7.19.14-14.49-.52-21.71h10.47V17.26c-3.5,0-7-.11-10.5.15.45-5.65.11-11.32.26-17-4.26.82-8.5,1.69-12.75,2.53-.12,4.84,0,9.68.31,14.51-2.35-.2-4.71-.27-7.06-.25V27.68h7c-.55,6.49-.24,13-.33,19.5,0,5,.87,10.77,5.2,13.94,5.45,4,12.62,3,18.89,2.27-.54-3.86-1.25-7.7-1.87-11.55C298.89,52.5,294,53.27,292.77,49.46Z" fill="#fff"/>
    <path id="Path_1274" data-name="Path 1274" d="M325.4,16.9c-7.63,1.48-14.59,6.93-17,14.45C305,41.67,307.63,55,317.37,61c7.29,4.44,16.72,4.36,24.49,1.25a19.3,19.3,0,0,0,11.21-12.93c2.41-8.3,1.48-18-4.21-24.83S333.77,15.43,325.4,16.9Zm12.39,34.17c-2.54,2.82-6.75,3.46-10.3,2.66-5.28-2-6.75-8.3-7.1-13.35-.5-5.49,1.15-12.56,7-14.56,3.13-.74,6.83-.36,9.17,2.06,3,2.9,3.94,7.31,4.14,11.35S340.39,47.76,337.79,51.07Z" fill="#fff"/>
    <path id="Path_1275" data-name="Path 1275" d="M208.39,24c.05-2.13.11-4.26.23-6.38-4.29-.26-8.58-.07-12.87-.13V63.22h13c.1-9-.24-18,.16-27,.34-7.42,9.72-11.46,15.65-7.34,1.57-3.57,3.33-7,5-10.57C222.23,15.56,212.94,17.26,208.39,24Z" fill="#fff"/>
    <path id="Path_1276" data-name="Path 1276" d="M270.14,30.32c-.8-6.64-6.7-11.81-13.1-12.9-6.16-1.1-12.75-.91-18.58,1.5-4.13,1.81-6.84,5.68-8.22,9.86,4,1.31,8.21,1.9,12.25,3.1,1.87-5.79,9.76-6.84,14-3.18A4.11,4.11,0,0,1,255,35.3c-7.05,2.15-15.1.27-21.65,4.23-7.76,4.65-7.89,17.8.11,22.29a21.3,21.3,0,0,0,24.88-3.5c.16,1.65.31,3.3.46,5H273c-.89-2.61-2.2-5.18-2.23-8C270.62,47,271.09,38.6,270.14,30.32ZM254.22,52.49c-3.67,2.49-9.73,3.36-12.7-.62-2.06-2.84.35-6.76,3.51-7.32,4.2-1,8.59-.94,12.74-2.22C257.67,45.91,257.64,50.34,254.22,52.49Z" fill="#fff"/>
    <path id="Path_1277" data-name="Path 1277" d="M370.39,24c.06-2.14.1-4.28.2-6.41-4.25-.2-8.5,0-12.75-.16-.24,15.26,0,30.53-.1,45.79h13v-24c0-3,.46-6.29,2.54-8.63,3.2-3.76,9.19-4.39,13.3-1.75,1.56-3.58,3.33-7,5-10.58C384.22,15.57,374.94,17.26,370.39,24Z" fill="#fff"/>
    <path id="Path_1278" data-name="Path 1278" d="M52.17,2.26C34.8,8.22,17.26,13.75,0,20V54.18c3.79-.4,7.27-2,10.87-3.16,13.78-4.56,27.47-9.39,41.3-13.8v-.33Q52.19,19.56,52.17,2.26Z" fill="#f73312"/>
    <path id="Path_1279" data-name="Path 1279" d="M52.17,36.89v.33c.07,11.69-.08,23.37.06,35.05h.44a20.46,20.46,0,0,1,4.41-2.15q23.3-7.85,46.57-15.77V19.52C86.48,25.29,69.36,31.21,52.17,36.89Z" fill="#fbab00"/>
  </g>
</svg>
